<svg width="31" height="31" viewBox="0 0 31 31" fill="none" xmlns="http://www.w3.org/2000/svg">
<path d="M21.928 19.1765L21.1697 19.9315C21.1697 19.9315 19.3647 21.7249 14.4397 16.8282C9.51472 11.9316 11.3197 10.1383 11.3197 10.1383L11.7964 9.66159C12.9747 8.49159 13.0864 6.6116 12.058 5.23828L9.95805 2.43329C8.68472 0.7333 6.2264 0.508302 4.76807 1.95829L2.15142 4.55828C1.42976 5.27828 0.946427 6.20827 1.00476 7.2416C1.15476 9.88659 2.35142 15.5749 9.02472 22.2115C16.103 29.2482 22.7446 29.5282 25.4596 29.2748C26.3196 29.1948 27.0663 28.7582 27.668 28.1582L30.0346 25.8048C31.6346 24.2165 31.1846 21.4915 29.138 20.3799L25.9546 18.6482C24.6113 17.9182 22.978 18.1332 21.928 19.1765Z" fill="black"/>
</svg>
